HIERARCHY
ROOT Hips
{
	OFFSET 0.000000 0.000000 0.000000 
	CHANNELS 6 Xposition Yposition Zposition Yrotation Zrotation Xrotation 
	JOINT Lumbar
	{
		OFFSET 0.000000 0.000000 0.000000 
		CHANNELS 3 Zrotation Xrotation Yrotation
		JOINT Neck
		{
			OFFSET 0.000000 0.445665 0.000000 
			CHANNELS 3 Zrotation Xrotation Yrotation
			End Site
			{
				OFFSET 0.000000 0.227535 0.000000 
			}
		}
		JOINT RightShoulder
		{
			OFFSET 0.019635 0.377685 0.194865 
			CHANNELS 3 Zrotation Xrotation Yrotation
			JOINT RightElbow
			{
				OFFSET 0.000000 -0.243375 0.000000 
				CHANNELS 2 Zrotation Yrotation
				JOINT RightWrist
				{
					OFFSET 0.000000 -0.264825 0.000000 
					CHANNELS 2 Zrotation Xrotation
					End Site
					{
						OFFSET 0.006600 -0.176220 0.000990 
					}
				}
			}
		}
		JOINT LeftShoulder
		{
			OFFSET 0.019635 0.377685 -0.194865 
			CHANNELS 3 Zrotation Xrotation Yrotation
			JOINT LeftElbow
			{
				OFFSET 0.000000 -0.243375 0.000000 
				CHANNELS 2 Zrotation Yrotation
				JOINT LeftWrist
				{
					OFFSET 0.000000 -0.264825 0.000000 
					CHANNELS 2 Zrotation Xrotation
					End Site
					{
						OFFSET 0.006600 -0.176220 -0.000990 
					}
				}
			}
		}
	}
	JOINT RightHip
	{
		OFFSET 0.052140 -0.069960 0.075570 
		CHANNELS 3 Zrotation Xrotation Yrotation
		JOINT RightKnee
		{
			OFFSET 0.000000 -0.402270 0.000000 
			CHANNELS 1 Zrotation
			JOINT RightAnkle
			{
				OFFSET 0.000000 -0.404085 0.000000 
				CHANNELS 3 Zrotation Xrotation Yrotation
				End Site
				{
					OFFSET 0.204105 -0.089430 0.008415 
				}
			}
		}
	}
	JOINT LeftHip
	{
		OFFSET 0.052140 -0.069960 -0.075570 
		CHANNELS 3 Zrotation Xrotation Yrotation
		JOINT LeftKnee
		{
			OFFSET 0.000000 -0.402270 0.000000 
			CHANNELS 1 Zrotation
			JOINT LeftAnkle
			{
				OFFSET 0.000000 -0.404085 0.000000 
				CHANNELS 3 Zrotation Xrotation Yrotation
				End Site
				{
					OFFSET 0.204105 -0.089430 -0.008415 
				}
			}
		}
	}
}
MOTION
Frames: 28
Frame Time: 0.02
-0.31313 -0.36606 0.247 28.38146 11.38923 -4.12241 15.77957 3.67938 -0.02287 -0.79361 0.58176 -0.83079 35.32598 0.11949 11.43839 128.82546 99.49352 12.69795 0.8804 36.44172 -1.41811 -9.27672 133.90556 -113.61862 16.83969 -2.62121 75.33573 -0.01747 -12.26168 -92.51181 -9.54043 -4.2867 -3.05443 107.98005 -3.10915 23.87577 -69.6523 -16.07134 2.91609 2.59983
-0.31391 -0.36678 0.24668 28.59276 11.35252 -4.17288 16.17799 3.69918 -0.20204 -0.7033 0.44522 -0.83079 35.72668 -0.07238 11.18605 128.83456 99.43836 12.86145 1.05304 36.73259 -1.67092 -9.10932 133.67623 -113.85506 16.96839 -2.71205 76.14655 -0.82148 -11.86012 -93.4648 -9.55878 -4.34358 -3.08879 107.88752 -2.6165 23.04016 -68.68882 -16.13263 2.9209 2.60476
-0.31457 -0.36729 0.24612 28.83619 11.23002 -4.2493 16.65178 3.72691 -0.36564 -0.57308 0.31965 -0.83079 36.28514 -0.26912 10.90175 128.77052 99.37316 13.08406 1.24857 37.10661 -1.92897 -8.92598 133.37765 -113.77483 17.0484 -2.76509 77.13591 -1.75463 -11.39664 -94.48034 -9.63229 -4.344 -3.09476 107.66623 -2.16915 22.11321 -67.79456 -16.12491 2.89137 2.58502
-0.31526 -0.36788 0.24566 29.062 11.14334 -4.31367 17.09323 3.74853 -0.53134 -0.46162 0.19479 -0.83079 36.76427 -0.46032 10.63341 128.74144 99.34148 13.27423 1.42522 37.44452 -2.17311 -8.75376 133.11379 -113.84693 17.14927 -2.83392 78.04549 -2.62563 -10.94977 -95.45575 -9.68129 -4.37028 -3.11367 107.49787 -1.70696 21.18658 -66.90955 -16.15207 2.87747 2.57671
-0.31604 -0.36852 0.24522 29.3018 11.06639 -4.3798 17.53028 3.7811 -0.72111 -0.3452 0.04501 -0.83079 37.27639 -0.66676 10.35724 128.70673 99.18561 13.48678 1.63748 37.77936 -2.46898 -8.56419 132.83377 -113.89721 17.25878 -2.91082 78.95685 -3.51597 -10.55011 -96.48482 -9.7283 -4.39701 -3.13314 107.35373 -1.21887 20.43244 -65.84766 -16.16457 2.86521 2.56857
-0.31659 -0.36902 0.2447 29.51954 10.94922 -4.44852 17.99383 3.79253 -0.85575 -0.22995 -0.04958 -0.83079 37.75683 -0.84176 10.0909 128.66629 99.28341 13.66749 1.78286 38.1392 -2.65754 -8.4077 132.57181 -113.91065 17.33695 -2.96081 79.9045 -4.39444 -10.03919 -97.41739 -9.79136 -4.40906 -3.14448 107.12871 -0.7949 19.30089 -65.18024 -16.1898 2.84083 2.55382
-0.31656 -0.36921 0.24404 29.66915 10.75372 -4.51379 18.50159 3.7447 -0.84327 -0.13439 0.00135 -0.83079 38.11346 -0.93365 9.85433 128.62117 100.128 13.74232 1.71502 38.54271 -2.54435 -8.34199 132.37792 -113.92486 17.34762 -2.94964 80.90292 -5.21372 -9.22172 -98.04445 -9.89819 -4.3922 -3.13971 106.70764 -0.55277 17.11257 -65.49252 -16.28376 2.78976 2.52661
-0.31629 -0.36927 0.24331 29.79506 10.51894 -4.58144 19.03462 3.67519 -0.77516 -0.04027 0.10828 -0.83079 38.43265 -0.99281 9.63004 128.57367 101.22228 13.78397 1.58251 38.96879 -2.32354 -8.31095 132.20488 -113.90849 17.32721 -2.91204 81.93167 -6.01481 -8.29759 -98.57684 -10.01694 -4.36261 -3.12769 106.21065 -0.37151 14.5546 -66.21732 -16.39002 2.72774 2.4935
-0.31609 -0.36938 0.24261 29.93137 10.29543 -4.65062 19.56247 3.61476 -0.7313 0.05812 0.19247 -0.83079 38.76691 -1.0635 9.40351 128.53143 102.17257 13.84306 1.49512 39.38724 -2.15387 -8.26715 132.02165 -113.88568 17.31539 -2.88328 82.94912 -6.82046 -7.4312 -99.16581 -10.12187 -4.34019 -3.11935 105.75055 -0.15191 12.18927 -66.81197 -16.47988 2.67143 2.46303
-0.31606 -0.36955 0.24192 30.07082 10.09766 -4.70962 20.06686 3.55751 -0.69146 0.14155 0.26575 -0.83079 39.11327 -1.14806 9.16111 128.46933 103.24551 13.8937 1.34453 39.79772 -1.97392 -8.21043 131.83837 -113.93014 17.32331 -2.86524 83.96231 -7.64716 -6.52162 -99.6953 -10.26427 -4.31039 -3.10862 105.27433 0.02281 9.71501 -67.16232 -16.61284 2.61066 2.4318
-0.31562 -0.36955 0.2412 30.19715 9.83677 -4.79017 20.62455 3.48884 -0.63003 0.25669 0.37473 -0.83079 39.42553 -1.19643 8.95587 128.4486 104.12962 13.95393 1.30693 40.22889 -1.79115 -8.18866 131.6618 -113.84102 17.28584 -2.82082 84.98937 -8.42297 -5.67986 -100.33107 -10.33064 -4.29317 -3.10124 104.81733 0.27498 7.38319 -68.12457 -16.66 2.55725 2.40122
-0.31407 -0.36914 0.24045 30.29734 9.42259 -4.92841 21.32725 3.38981 -0.52465 0.44751 0.57002 -0.83079 39.63418 -1.14808 8.84395 128.54592 104.36778 14.04278 1.62303 40.71286 -1.61407 -8.25895 131.49274 -113.30432 17.10867 -2.69446 86.04405 -9.0707 -5.03122 -101.23331 -10.18468 -4.3181 -3.10738 104.41557 0.77417 5.51752 -70.62343 -16.4656 2.52488 2.37267
-0.31211 -0.36857 0.23968 30.38416 8.94439 -5.08828 22.08136 3.2807 -0.39941 0.6724 0.79892 -0.83079 39.81246 -1.06521 8.77035 128.68449 104.41772 14.14307 2.05038 41.21636 -1.4399 -8.36269 131.33114 -112.64921 16.89064 -2.5451 87.1108 -9.66558 -4.45843 -102.25419 -9.96151 -4.35549 -3.11676 104.03971 1.35005 3.81209 -73.73242 -16.18463 2.50079 2.3453
-0.31036 -0.36806 0.2389 30.47414 8.48866 -5.23903 22.80919 3.17899 -0.28167 0.8895 1.0115 -0.83079 40.01602 -1.00138 8.68344 128.80275 104.59743 14.24195 2.40939 41.7095 -1.27318 -8.44838 131.17039 -112.10977 16.7067 -2.41722 88.17385 -10.27893 -3.86474 -103.25406 -9.77294 -4.38483 -3.12325 103.6631 1.87921 2.04477 -76.597 -15.94526 2.47437 2.31835
-0.30852 -0.36759 0.23818 30.57567 8.06009 -5.38719 23.5512 3.06492 -0.16735 1.07399 1.23068 -0.83079 40.16996 -0.92264 8.5795 128.92845 104.60523 14.32441 2.8402 42.20913 -1.06702 -8.5467 130.99252 -111.31887 16.45852 -2.24366 89.23259 -10.91564 -3.21078 -104.11421 -9.5865 -4.42432 -3.13571 103.23628 2.4569 0.2167 -79.34072 -15.69853 2.44159 2.28727
-0.30677 -0.367 0.23734 30.65021 7.55948 -5.54548 24.27437 2.97409 -0.04325 1.33463 1.4431 -0.83079 40.42046 -0.86668 8.52012 129.04728 104.91546 14.44333 3.15002 42.70036 -0.94343 -8.62695 130.8517 -111.01027 16.33181 -2.15784 90.30016 -11.49077 -2.70079 -105.29171 -9.37758 -4.4451 -3.13627 102.92242 2.95183 -1.43989 -82.47135 -15.44416 2.42406 2.26498
-0.30527 -0.36613 0.23616 30.65416 6.88315 -5.72956 24.94251 2.95363 0.11405 1.79599 1.63046 -0.83079 40.94479 -0.88665 8.5731 129.14759 106.17183 14.66776 3.08775 43.15629 -1.06236 -8.64248 130.81201 -112.18481 16.57765 -2.34035 91.41045 -11.91296 -2.57843 -107.34247 -9.12137 -4.41733 -3.10629 102.90439 3.20574 -2.6775 -86.55527 -15.21031 2.4478 2.2683
-0.30389 -0.36515 0.23486 30.6314 6.13567 -5.92248 25.58771 2.95634 0.27815 2.33277 1.80918 -0.83079 41.56719 -0.9301 8.66974 129.23768 107.72579 14.9272 2.9022 43.60412 -1.26233 -8.6396 130.80893 -113.82852 16.94271 -2.6087 92.52464 -12.27391 -2.59696 -109.70335 -8.84593 -4.36932 -3.06375 103.00133 3.37294 -3.74317 -90.99798 -14.9686 2.48645 2.28018
-0.30249 -0.36422 0.23363 30.62053 5.41561 -6.10933 26.23742 2.94605 0.43159 2.83614 1.99041 -0.83079 42.14549 -0.95991 8.74722 129.32548 109.09943 15.16582 2.78054 44.06058 -1.4153 -8.64952 130.78884 -115.17437 17.23498 -2.82395 93.62345 -12.66068 -2.54629 -111.90671 -8.58183 -4.32647 -3.02489 103.05249 3.57594 -4.87584 -95.2533 -14.71608 2.51761 2.28709
-0.30092 -0.36329 0.23232 30.61021 4.71266 -6.30567 26.91517 2.9457 0.61775 3.33812 2.17901 -0.83079 42.72226 -1.00087 8.8233 129.44374 110.65639 15.42564 2.62964 44.4977 -1.60978 -8.64249 130.77144 -116.86368 17.60244 -3.09612 94.78186 -13.05559 -2.52138 -114.18742 -8.30385 -4.30067 -2.99446 103.0774 3.79644 -6.05084 -99.63735 -14.51826 2.55213 2.29852
-0.29974 -0.36233 0.23115 30.59258 3.95975 -6.48397 27.52684 2.93045 0.73708 3.85914 2.34955 -0.83079 43.324 -1.02485 8.91198 129.49589 111.90533 15.64936 2.50879 44.97185 -1.73886 -8.66522 130.75595 -117.96277 17.84455 -3.27259 95.81474 -13.41783 -2.47363 -116.37506 -8.05152 -4.23491 -2.94374 103.18371 3.95932 -7.09807 -103.82491 -14.20953 2.58298 2.30265
-0.29968 -0.36133 0.2304 30.56122 3.0723 -6.6111 27.97412 2.86733 0.67003 4.42513 2.47358 -0.83079 43.98739 -0.99434 9.02629 129.36513 112.2249 15.76577 2.50152 45.55924 -1.65166 -8.78089 130.74578 -117.21009 17.69047 -3.14517 96.51881 -13.72095 -2.34264 -118.26371 -7.87275 -4.05905 -2.83753 103.48892 3.98043 -7.84092 -107.42506 -13.56434 2.60062 2.28337
-0.30001 -0.36031 0.22979 30.52347 2.14036 -6.71951 28.35285 2.78878 0.5354 5.0052 2.57917 -0.83079 44.6696 -0.94636 9.15132 129.16845 112.22613 15.84439 2.52797 46.18241 -1.49861 -8.92584 130.73443 -115.86578 17.40991 -2.92193 97.09325 -13.99057 -2.18101 -120.04064 -7.7214 -3.84435 -2.71174 103.87155 3.94684 -8.46042 -110.8031 -12.81409 2.61365 2.2565
-0.30014 -0.35929 0.22911 30.48876 1.23783 -6.83588 28.75481 2.71794 0.43175 5.57196 2.69244 -0.83079 45.3324 -0.90792 9.27028 129.00371 112.37813 15.93965 2.5383 46.78315 -1.38637 -9.05309 130.7178 -114.86579 17.20158 -2.75506 97.71411 -14.26518 -2.02336 -121.84646 -7.55894 -3.65066 -2.59664 104.21711 3.94051 -9.13327 -114.25262 -12.13366 2.62872 2.23407
-0.30036 -0.35826 0.22843 30.4526 0.29241 -6.95493 29.19045 2.64457 0.32726 6.17182 2.80909 -0.83079 46.04435 -0.86397 9.39584 128.83055 112.51515 16.03843 2.5483 47.4096 -1.23184 -9.19815 130.72744 -113.57192 16.93646 -2.53762 98.38617 -14.58076 -1.91165 -123.75735 -7.38933 -3.44273 -2.47379 104.57461 3.92125 -9.81252 -117.84295 -11.36035 2.64565 2.20843
-0.30048 -0.35728 0.22779 30.41819 -0.57135 -7.0638 29.53871 2.57297 0.2083 6.70351 2.91353 -0.83079 46.65721 -0.8265 9.50959 128.65904 112.60329 16.12038 2.5679 47.99118 -1.14764 -9.31347 130.68108 -112.73308 16.75635 -2.4009 98.92286 -14.80397 -1.6964 -125.41655 -7.24232 -3.2547 -2.36227 104.9242 3.91683 -10.45009 -121.07808 -10.75482 2.65601 2.18672
-0.30027 -0.3564 0.22725 30.3913 -1.21499 -7.14895 29.67325 2.50573 0.06649 7.05642 2.99625 -0.83079 46.99067 -0.81594 9.58777 128.51138 112.63817 16.16563 2.61231 48.43932 -1.2822 -9.33764 130.48475 -113.38341 16.85631 -2.51572 99.09932 -14.7794 -1.1907 -126.42669 -7.14333 -3.13821 -2.28991 105.23185 3.96914 -11.01417 -123.41999 -10.64619 2.66187 2.1851
-0.29995 -0.35558 0.22675 30.36635 -1.77153 -7.22434 29.72049 2.44137 -0.08766 7.33741 3.06582 -0.83079 47.22343 -0.81158 9.65326 128.36716 112.63258 16.19513 2.66465 48.84122 -1.48763 -9.33099 130.23113 -114.49331 17.0431 -2.71314 99.14752 -14.66346 -0.58329 -127.18313 -7.06784 -3.04199 -2.22917 105.52844 4.03845 -11.5388 -125.40307 -10.70887 2.65922 2.18647
